#!OML:ASF H:\Dans Jumps\Project 1\Capture day 1\Session 1\subject.ASF
:FULLY-SPECIFIED
:DEGREES
519
root 0.171407 17.8246 -2.02674 7.32722 0.402588 -1.22325
lowerback -2.45117 -0.717381 -0.253066
upperback 3.03018 -1.01265 1.619
thorax 4.53447 -0.541542 1.74975
lowerneck -10.7804 0.604014 -1.66006
upperneck 39.6317 1.01555 0.866996
head 15.8271 0.289721 0.835836
rclavicle 7.90169e-015 -8.15017e-015
rhumerus -25.5154 -16.7337 -80.7109
rradius 23.4538
rwrist 32.9223
rhand -20.769 -26.6501
rfingers 7.12502
rthumb 5.59736 -56.5562
lclavicle 7.90169e-015 -8.15017e-015
lhumerus -19.7876 -5.85603 90.1497
lradius 20.6337
lwrist 7.3966
lhand -26.2265 -4.77238
lfingers 7.12502
lthumb 0.326983 25.2071
rfemur -14.674 -2.98491 19.8752
rtibia 19.9411
rfoot -11.3 -2.8975
rtoes 16.3242
lfemur -13.073 6.52815 -17.3181
ltibia 15.7504
lfoot -8.34073 1.15726
ltoes 5.53699
520
root 0.170215 17.8243 -2.02499 7.31415 0.390382 -1.22973
lowerback -2.4751 -0.716033 -0.249703
upperback 3.03092 -1.01099 1.61438
thorax 4.54864 -0.540577 1.74292
lowerneck -10.7882 0.609142 -1.65644
upperneck 39.6281 1.02902 0.850738
head 15.827 0.293677 0.830304
rclavicle -5.66536e-015 1.39149e-014
rhumerus -25.5232 -16.7299 -80.7252
rradius 23.4535
rwrist 32.9224
rhand -20.7542 -26.6592
rfingers 7.12502
rthumb 5.61168 -56.5649
lclavicle -5.66536e-015 1.39149e-014
lhumerus -19.7498 -5.681 90.0778
lradius 20.538
lwrist 7.27919
lhand -26.2644 -4.77672
lfingers 7.12502
lthumb 0.290369 25.2028
rfemur -14.6513 -2.99707 19.8855
rtibia 19.9332
rfoot -11.3046 -2.87183
rtoes 16.3187
lfemur -13.0509 6.52957 -17.3044
ltibia 15.7555
lfoot -8.34978 1.17333
ltoes 5.51705
521
root 0.1691 17.824 -2.02316 7.30117 0.37843 -1.23585
lowerback -2.49865 -0.714624 -0.247844
upperback 3.03173 -1.00923 1.61095
thorax 4.56271 -0.539634 1.73819
lowerneck -10.7955 0.613853 -1.65303
upperneck 39.623 1.04231 0.833415
head 15.8262 0.29741 0.824303
rclavicle -7.45443e-016 1.07344e-014
rhumerus -25.5335 -16.7344 -80.7334
rradius 23.45
rwrist 32.9307
rhand -20.7389 -26.6679
rfingers 7.12502
rthumb 5.62644 -56.5732
lclavicle -7.45443e-016 1.07344e-014
lhumerus -19.7163 -5.50807 90.0099
lradius 20.4354
lwrist 7.15411
lhand -26.3053 -4.79006
lfingers 7.12502
lthumb 0.250888 25.1895
rfemur -14.6288 -3.01061 19.8953
rtibia 19.9267
rfoot -11.3105 -2.84442
rtoes 16.3205
lfemur -13.0281 6.52896 -17.2912
ltibia 15.7599
lfoot -8.35902 1.19077
ltoes 5.49981
522
root 0.168007 17.8237 -2.02124 7.28725 0.365611 -1.24002
lowerback -2.52055 -0.712093 -0.248799
upperback 3.0324 -1.00582 1.60719
thorax 4.5757 -0.537951 1.73482
lowerneck -10.7982 0.617924 -1.65193
upperneck 39.6129 1.05376 0.819725
head 15.8215 0.30059 0.819903
rclavicle 6.21202e-015 1.78906e-015
rhumerus -25.5479 -16.7489 -80.7366
rradius 23.442
rwrist 32.9469
rhand -20.7258 -26.6751
rfingers 7.12502
rthumb 5.63908 -56.5801
lclavicle 6.21202e-015 1.78906e-015
lhumerus -19.6893 -5.33545 89.9447
lradius 20.33
lwrist 7.01294
lhand -26.3353 -4.80469
lfingers 7.12502
lthumb 0.221876 25.1749
rfemur -14.6057 -3.01951 19.9027
rtibia 19.9221
rfoot -11.3176 -2.8225
rtoes 16.3264
lfemur -13.0032 6.52593 -17.2798
ltibia 15.7637
lfoot -8.36798 1.21041
ltoes 5.48476
